<svg width="28" height="28" viewBox="0 0 28 28" fill="none" xmlns="http://www.w3.org/2000/svg">
<path d="M21.4007 12.2883C21.0021 12.6887 20.6969 13.1719 20.5067 13.7034C20.3166 14.2351 20.2462 14.802 20.3006 15.3638L20.2816 15.3449C20.3376 16.0063 20.2482 16.6718 20.0199 17.2952C19.7915 17.9185 19.4298 18.4846 18.9598 18.954C18.4896 19.4232 17.9227 19.7845 17.2983 20.0124C16.674 20.2403 16.0073 20.3296 15.345 20.2737L15.3639 20.2926C14.5715 20.219 13.7757 20.3911 13.0848 20.7856C12.3941 21.1801 11.8419 21.7777 11.5038 22.4969C11.1657 23.2162 11.0579 24.022 11.1953 24.8047C11.3327 25.5873 11.7085 26.3085 12.2715 26.8701C12.8344 27.4316 13.5572 27.8062 14.3411 27.9426C15.1251 28.0791 15.9321 27.9707 16.6522 27.6325C17.3723 27.2942 17.9703 26.7425 18.3648 26.0524C18.7593 25.3623 18.931 24.5677 18.8566 23.7766L18.8766 23.7955C18.8206 23.1342 18.9099 22.4686 19.1382 21.8452C19.3666 21.2219 19.7284 20.6558 20.1985 20.1865C20.6686 19.7172 21.2355 19.3559 21.8598 19.1281C22.4842 18.9001 23.1508 18.8108 23.8133 18.8667L23.7933 18.8478C24.4405 18.9059 25.092 18.7999 25.6874 18.5397C26.2827 18.2795 26.8026 17.8735 27.1989 17.3593C27.5952 16.8451 27.8552 16.2392 27.9544 15.5981C28.0538 14.9568 27.9895 14.301 27.7673 13.6912C27.5452 13.0814 27.1725 12.5375 26.6838 12.1098C26.195 11.6821 25.6061 11.3846 24.9715 11.2447C24.3369 11.1048 23.6772 11.1271 23.0535 11.3095C22.4298 11.492 21.8625 11.8286 21.4038 12.2883H21.4007Z" fill="#3162FF"/>
<path d="M13.6424 17.8168L13.6224 17.7979C14.1854 17.8545 14.7539 17.7855 15.287 17.5958C15.82 17.4062 16.3042 17.1008 16.7045 16.7014C17.1047 16.3021 17.4111 15.8189 17.6014 15.2869C17.7917 14.7548 17.8613 14.1873 17.805 13.6251L17.825 13.644C17.769 12.9826 17.8584 12.3171 18.0866 11.6937C18.315 11.0704 18.6769 10.5043 19.1469 10.035C19.617 9.56571 20.1839 9.2044 20.8082 8.97654C21.4326 8.74854 22.0992 8.65936 22.7617 8.71519L22.7417 8.69629C23.5341 8.77063 24.3302 8.59902 25.0214 8.20499C25.7126 7.81096 26.2652 7.21363 26.6039 6.4945C26.9425 5.77539 27.0507 4.96946 26.9138 4.18666C26.7769 3.40386 26.4014 2.68231 25.8385 2.1204C25.2758 1.5585 24.553 1.1836 23.769 1.04687C22.9849 0.910127 22.1778 1.01818 21.4575 1.35631C20.7371 1.69443 20.1389 2.24616 19.7442 2.93625C19.3495 3.62632 19.1777 4.42115 19.2521 5.21232L19.2332 5.19237C19.2893 5.85377 19.2001 6.51942 18.9719 7.14284C18.7436 7.76626 18.3818 8.33242 17.9117 8.80182C17.4416 9.27107 16.8746 9.63239 16.2502 9.86024C15.6257 10.0881 14.959 10.1771 14.2965 10.1212L14.3155 10.1411C13.7525 10.0845 13.1838 10.1535 12.6508 10.3431C12.1178 10.5327 11.6336 10.8382 11.2333 11.2376C10.8331 11.6369 10.5267 12.1201 10.3363 12.6521C10.1461 13.1842 10.0766 13.7517 10.1328 14.3139L10.1139 14.295C10.1696 14.9563 10.0801 15.6218 9.85182 16.2451C9.62339 16.8683 9.2616 17.4344 8.7916 17.9036C8.32155 18.3729 7.75464 18.7341 7.13039 18.9621C6.50614 19.1901 5.83959 19.2794 5.17721 19.2238L5.19615 19.2427C4.40371 19.1684 3.6076 19.3399 2.91641 19.734C2.22523 20.1281 1.67262 20.7253 1.33396 21.4445C0.99529 22.1636 0.887049 22.9695 1.02401 23.7523C1.16098 24.5351 1.53647 25.2567 2.09927 25.8186C2.66208 26.3805 3.38479 26.7554 4.16884 26.8921C4.9529 27.0288 5.76011 26.9208 6.48039 26.5827C7.20066 26.2446 7.79894 25.6929 8.1936 25.0028C8.5883 24.3126 8.76015 23.5179 8.68569 22.7267L8.70567 22.7456C8.64972 22.0842 8.73912 21.4187 8.96744 20.7953C9.19566 20.172 9.55755 19.6059 10.0276 19.1365C10.4977 18.6673 11.0646 18.306 11.6889 18.0781C12.3133 17.8502 12.9799 17.7609 13.6424 17.8168Z" fill="#3162FF"/>
<path d="M6.59407 15.7093C6.99268 15.3091 7.29786 14.8258 7.48784 14.2942C7.67782 13.7626 7.74791 13.1956 7.69309 12.6338L7.71307 12.6527C7.65711 11.9912 7.74647 11.3254 7.97491 10.7019C8.20335 10.0784 8.56538 9.51221 9.0357 9.04285C9.50602 8.57351 10.0732 8.21232 10.6978 7.98451C11.3224 7.7567 11.9893 7.66777 12.6519 7.72392L12.6319 7.70502C13.424 7.77912 14.2199 7.60745 14.9107 7.21344C15.6016 6.81944 16.1538 6.22227 16.4924 5.50337C16.8308 4.78446 16.9389 3.97883 16.802 3.19633C16.6651 2.41382 16.2896 1.69254 15.727 1.13084C15.1645 0.569143 14.442 0.19437 13.6582 0.0576361C12.8745 -0.079108 12.0675 0.0288551 11.3475 0.366773C10.6274 0.70469 10.0293 1.25613 9.63475 1.94589C9.24004 2.63565 9.06809 3.43016 9.14234 4.22105L9.12341 4.20215C9.17936 4.86351 9.08996 5.52908 8.86164 6.15242C8.63332 6.77575 8.27155 7.34183 7.80148 7.81115C7.33142 8.28046 6.76443 8.6417 6.1401 8.8696C5.51577 9.09756 4.84913 9.18681 4.18672 9.13095L4.20565 9.14985C3.5584 9.09189 2.90697 9.19804 2.31172 9.45834C1.71648 9.71864 1.19668 10.1248 0.800491 10.6391C0.404305 11.1533 0.144555 11.7591 0.0452957 12.4003C-0.0539535 13.0415 0.0105053 13.6974 0.232698 14.307C0.454891 14.9168 0.827646 15.4606 1.3164 15.8881C1.80516 16.3158 2.39411 16.6133 3.02869 16.7532C3.66326 16.8929 4.32291 16.8705 4.94654 16.6882C5.57016 16.5057 6.13755 16.169 6.59616 15.7093H6.59407Z" fill="#3162FF"/>
</svg>
