<svg width="24" height="24" viewBox="0 0 24 24" fill="none" xmlns="http://www.w3.org/2000/svg">
<g clip-path="url(#clip0_1_134)">
<path fill-rule="evenodd" clip-rule="evenodd" d="M17.2412 4.51328C15.6229 3.99417 13.6669 4.40052 12.6769 5.9021C12.5414 6.10768 12.3136 6.23363 12.0674 6.23909C11.8213 6.24456 11.5881 6.12885 11.4436 5.9295C10.3648 4.44154 8.43956 4.00044 6.85112 4.51303L6.85057 4.51321C3.86206 5.47511 2.64144 9.1117 3.63592 12.2171C4.43565 14.7059 6.18475 16.6052 7.96258 17.8911C8.8486 18.5319 9.72769 19.0099 10.4726 19.3252C11.2422 19.6508 11.7964 19.7723 12.0508 19.7723C12.3032 19.7723 12.8593 19.6485 13.6345 19.3174C14.3841 18.9973 15.2686 18.5134 16.1582 17.8683C17.9444 16.5732 19.6897 14.6747 20.4613 12.2213L20.4625 12.2177C21.4558 9.11349 20.2298 5.47567 17.2412 4.51328ZM12.0299 4.32667C13.5585 2.77286 15.8831 2.50215 17.6999 3.08514L17.7006 3.08537C21.7432 4.38689 23.0413 9.07761 21.8917 12.6731C20.993 15.5287 18.9902 17.6677 17.0387 19.0827C16.0591 19.7929 15.077 20.3324 14.2237 20.6969C13.396 21.0503 12.6129 21.2723 12.0508 21.2723C11.4912 21.2723 10.713 21.0557 9.88797 20.7065C9.03826 20.3469 8.06047 19.8131 7.08349 19.1065C5.13539 17.6974 3.13405 15.5588 2.20774 12.6757L2.20753 12.6751C1.05624 9.08063 2.34558 4.38757 6.3908 3.08541M12.0299 4.32667C10.4809 2.8382 8.23439 2.49069 6.391 3.08535L12.0299 4.32667Z" fill="#B5B5BD"/>
<path fill-rule="evenodd" clip-rule="evenodd" d="M15.0424 7.48738C15.0847 7.07533 15.4531 6.77562 15.8651 6.81795C16.6576 6.89937 17.3375 7.26262 17.8047 7.85345C18.2671 8.43815 18.4824 9.19514 18.455 10.0112C18.4411 10.4252 18.0943 10.7495 17.6803 10.7356C17.2663 10.7217 16.942 10.3749 16.9559 9.96087C16.9735 9.4359 16.8338 9.0439 16.6282 8.78385C16.4274 8.52992 16.1263 8.35268 15.7118 8.3101C15.2998 8.26777 15 7.89942 15.0424 7.48738Z" fill="#B5B5BD"/>
</g>
<defs>
<clipPath id="clip0_1_134">
<rect width="24" height="24" fill="white"/>
</clipPath>
</defs>
</svg>
